<svg width="179" height="246" viewBox="0 0 179 246" fill="none" xmlns="http://www.w3.org/2000/svg">
<path fill-rule="evenodd" clip-rule="evenodd" d="M66.3587 169.01L123.219 0C121.186 0.963512 118.09 2.21803 114.191 3.79786C84.0417 16.0133 5.89087 47.6775 0.160102 114.646H48.6071L66.3587 169.01ZM116.715 37.4999L133.482 88.2953H171.975C158.215 56.9999 134.215 42.4999 116.715 37.4999ZM38.209 129.716L63.709 208C45.209 203 5.20898 183 0 129.716H38.209ZM56.0074 245.748L113.515 73.8716L123.5 103.273H176.714C194.804 186.512 97.5679 227.98 62.8912 242.769C60.1885 243.921 57.8658 244.912 56.0074 245.748Z" fill="#001049"/>
</svg>
